PathFileType	4	(X/Y/Z)	Patient5_TMGait_0pt45_1_right_05.trc.trc
DataRate	CameraRate	NumFrames	NumMarkers	Units	OrigDataRate	OrigDataStartFrame	OrigNumFrames
59.829059829060	59.829059829060	4	32	mm	59.829059829060	18	       141
Frame#	Time	R.ASIS			L.ASIS			Chest			R.Shoulder			Neck			L.Shoulder			L.Elbow			L.Wrist			R.Elbow			R.Wrist			L.Thigh.Superior			L.Thigh.Lateral			L.Thigh.Inferior			L.Patella			L.Shank.Superior			L.Shank.Lateral			L.Shank.Inferior			L.Heel			L.Midfoot.Lateral			L.Midfoot.Superior			L.Toe			R.Thigh.Superior			R.Thigh.Lateral			R.Thigh.Inferior			R.Patella			R.Shank.Superior			R.Shank.Lateral			R.Shank.Inferior			R.Heel			R.Midfoot.Lateral			R.Midfoot.Superior			R.Toe			
		X1	Y1	Z1	X2	Y2	Z2	X3	Y3	Z3	X4	Y4	Z4	X5	Y5	Z5	X6	Y6	Z6	X7	Y7	Z7	X8	Y8	Z8	X9	Y9	Z9	X10	Y10	Z10	X11	Y11	Z11	X12	Y12	Z12	X13	Y13	Z13	X14	Y14	Z14	X15	Y15	Z15	X16	Y16	Z16	X17	Y17	Z17	X18	Y18	Z18	X19	Y19	Z19	X20	Y20	Z20	X21	Y21	Z21	X22	Y22	Z22	X23	Y23	Z23	X24	Y24	Z24	X25	Y25	Z25	X26	Y26	Z26	X27	Y27	Z27	X28	Y28	Z28	X29	Y29	Z29	X30	Y30	Z30	X31	Y31	Z31	X32	Y32	Z32	

18	8.214142857143	923.115111075826	998.656478015881	523.721036062855	914.116846631632	960.767451477773	280.738402525649	971.323089402580	1438.987496637812	418.571092426169	855.056524028175	1500.579075475201	576.282973708388	849.818159009926	1560.883126654121	392.229920454114	931.624408848577	1507.221063654332	219.053319401843	891.589538864844	1182.472118501025	86.356487582549	1033.768223554783	933.638074414262	102.821470735627	740.817351025839	1186.732626749585	705.587553989390	946.812780938482	984.468683224833	675.358552721941	895.992332049534	732.656198910389	286.263049693508	804.447646480850	675.529345013564	252.065721415149	863.391722837159	605.532539336574	311.697063527248	830.059469616967	492.013843052492	319.029526785251	768.389007214965	400.815909034814	347.378522848970	682.006439645579	344.917942328342	278.156073302425	716.825639862611	286.223207898972	364.329759413866	547.678488525317	65.853723064852	378.237681595688	633.391194234339	34.408263910118	317.986475458675	734.390188594317	90.659706147411	356.297470729565	836.859511479560	44.159382186607	363.149281803540	1000.383663359017	793.664146115346	558.212468002280	951.938485930202	700.049131355950	621.501729779735	1042.035625778970	671.961680725358	547.303014383812	1078.158060616239	578.866375697565	586.467829110790	1049.895600158452	465.193621274038	553.602834392966	984.061801385368	390.089040313937	634.704513227670	1046.500773761769	324.657578649145	555.130199574541	949.297496069556	91.967410397718	526.104706315883	1032.198953957070	57.744806565432	593.564689049760	1130.555212692850	136.389410390551	584.606103262547	1237.559148174895	103.269629923700	576.923627750746	
19	8.230857142857	925.596271116831	995.238880978600	524.917165939350	914.614004822297	959.750306990283	282.202877787955	971.615273262939	1437.707309554200	420.577150899560	857.280652450488	1498.570791970496	579.947742801901	849.125058846652	1559.147277147342	396.079934513776	928.550163465616	1506.084701987577	221.563210226840	885.058694544208	1182.446777873361	87.569898078371	1024.812905248446	931.984385172631	100.372478596689	745.855211645767	1184.539672539266	710.884978560512	951.668660445017	982.690536984000	676.589553518259	894.440854625543	731.505526149448	286.858274910604	802.002642351033	675.139088802909	253.163030093371	860.968648103076	604.489777150247	311.986988941398	826.261682067493	490.935240728342	319.252397433263	763.942105946420	400.252691895391	347.687076914744	676.513649879799	345.482480004569	278.872484876808	711.314212601403	286.117991076419	364.487512487370	540.404304546286	66.776795018948	378.414928755450	625.887950983885	35.023926189183	318.055310000660	727.034709673118	90.739614257222	356.118481197020	829.225821253235	44.169913797557	363.041933496254	999.125719125305	787.207170371743	557.387182664432	949.180307704561	693.540790279298	620.523896591666	1038.372419802826	664.572654595936	545.481855402119	1072.769425343613	571.282046263418	583.857233191351	1045.229947968506	458.556937222707	550.486565505170	979.684999067230	382.606399074997	631.044543765122	1043.090232468918	317.974482808943	551.536489284088	947.815940255707	85.089738099925	520.994324755946	1030.774879908169	50.317617463806	588.148813784278	1128.822454438885	129.671617740928	580.225704317922	1235.997085268381	97.064258153014	572.205750474424	
20	8.247571428571	928.470596282079	991.506668694468	526.404989399885	915.312956572841	958.423097532560	283.818694119311	972.174158277868	1436.176956576669	422.799987271010	859.783794529076	1496.262995156366	583.821876376713	848.680881294332	1557.122639873810	400.209292746002	925.653438622291	1504.671655188338	224.364770828021	878.709100155938	1182.258695809324	88.958941231772	1015.844351046812	930.124451848697	97.920881788130	751.206103751002	1181.922486425952	716.144843379546	956.960468406860	980.692404318815	677.878254220404	893.227584899735	730.116028575586	287.470983305056	799.868738976280	674.505416893756	254.385895104494	858.949244725757	603.203237552445	312.270423926809	822.888540589852	489.523157837759	319.487181126891	759.844440070962	399.383088265878	348.043252686151	671.331179230191	345.850446188787	279.621479037778	705.992347001001	285.745858863483	364.657409557781	533.092009176278	67.587672084154	378.599334626074	618.370007246607	35.596379667364	318.130023694553	719.625289995952	90.809738652334	355.978859471463	821.581081125628	44.188539485484	362.929431710685	998.105483655472	780.183047791864	556.734726737935	945.978004961946	686.718739499307	619.575997000413	1034.365907295489	656.732159867485	543.799813241202	1066.827023892401	563.247199153797	581.352539417269	1039.935528305189	451.595281982032	547.426099744232	974.555073806209	374.894722163353	627.374233068640	1038.942928250350	310.994084232053	548.003360432023	945.382980989869	78.182494229757	515.935742498605	1028.205466561371	43.014357761566	583.046596368924	1126.168457580696	122.650675833520	575.771831463803	1233.435492391135	90.186333582958	567.654160513184	
21	8.264285714286	931.661611937721	987.511565589969	528.140432316508	916.236238536959	956.813216974938	285.622601164588	973.007578405481	1434.414876610059	425.244521383028	862.592991139141	1493.673448210555	587.919497026921	848.508248236532	1554.843404717394	404.617736719724	922.927674991834	1502.992683023354	227.452060951979	872.487737556591	1181.888362257098	90.568530050854	1006.880464845632	928.100234935820	95.506999672365	756.882664832767	1178.874004992981	721.344293082990	962.648746236387	978.401469786872	679.252749903385	892.440999622395	728.496622129066	288.158774328457	798.188160651933	673.609975238238	255.746936555688	857.476158479779	601.673471345512	312.605540755610	820.095298126306	487.717624849915	319.779623985782	756.205227834776	398.171862231679	348.474830650306	666.588686285279	346.005633389345	280.387952346285	700.923840390832	285.124668913218	364.893817207363	525.740396361198	68.337185922195	378.777181045446	610.845415141688	36.155202399626	318.204102877725	712.180253033442	90.886097641454	355.882010623349	813.930695916642	44.208992323499	362.815011457648	997.298826282660	772.835186069186	556.362781921492	942.491492047447	679.819454398607	618.726970967602	1030.213370069940	648.730595200883	542.356368631071	1060.608420332373	555.028697777780	579.020658673777	1034.255699534832	444.564961948603	544.449783070929	968.923100134692	367.217547088253	623.750988638283	1034.212755807890	303.967643582107	544.516861746237	942.012225038484	71.527239287831	510.960047519308	1024.481030504893	36.286967679658	578.371230027328	1122.639055666330	115.629519007172	571.102642882518	1229.899526916724	82.827795606797	563.220981846650	
